<?xml version="1.0" encoding="utf-8"?>
<svg version="1.1" xmlns:xlink="http://www.w3.org/1999/xlink" width="16px" height="14px" xmlns="http://www.w3.org/2000/svg">
  <g transform="matrix(1 0 0 1 -15 -73 )">
    <path d="M 9.66666666666667 9.8  L 10.65625 7.7  L 13.9479166666667 7.7  C 13.9409722222222 7.678125  13.9322916666667 7.64895833333333  13.921875 7.6125  C 13.9114583333333 7.57604166666667  13.9027777777778 7.546875  13.8958333333333 7.525  L 11.6875 2.1  L 4.3125 2.1  L 2.10416666666667 7.525  C 2.09722222222222 7.53958333333333  2.08854166666667 7.56875  2.078125 7.6125  C 2.06770833333333 7.65625  2.05902777777778 7.68541666666667  2.05208333333333 7.7  L 5.34375 7.7  L 6.33333333333333 9.8  L 9.66666666666667 9.8  Z M 15.7395833333333 6.6828125  C 15.9131944444444 7.12760416666667  16 7.57604166666667  16 8.028125  L 16 13.3  C 16 13.4895833333333  15.9340277777778 13.6536458333333  15.8020833333333 13.7921875  C 15.6701388888889 13.9307291666667  15.5138888888889 14  15.3333333333333 14  L 0.666666666666667 14  C 0.486111111111111 14  0.329861111111111 13.9307291666667  0.197916666666667 13.7921875  C 0.0659722222222222 13.6536458333333  0 13.4895833333333  0 13.3  L 0 8.028125  C 0 7.57604166666667  0.0868055555555555 7.12760416666667  0.260416666666667 6.6828125  L 2.73958333333333 0.645312500000001  C 2.80902777777778 0.463020833333332  2.93576388888889 0.309895833333333  3.11979166666667 0.1859375  C 3.30381944444444 0.0619791666666647  3.48611111111111 0  3.66666666666667 0  L 12.3333333333333 0  C 12.5138888888889 0  12.6961805555556 0.0619791666666647  12.8802083333333 0.1859375  C 13.0642361111111 0.309895833333333  13.1909722222222 0.463020833333332  13.2604166666667 0.645312500000001  L 15.7395833333333 6.6828125  Z " fill-rule="nonzero" fill="#ffffff" stroke="none" transform="matrix(1 0 0 1 15 73 )" />
  </g>
</svg>