<?xml version="1.0" encoding="utf-8"?>
<svg version="1.1" xmlns:xlink="http://www.w3.org/1999/xlink" width="16px" height="13px" xmlns="http://www.w3.org/2000/svg">
  <g transform="matrix(1 0 0 1 -15 -368 )">
    <path d="M 3.34375 9.54225852272727  C 3.40029761904762 9.60073390151515  3.42857142857143 9.66998106060606  3.42857142857143 9.75  L 3.42857142857143 10.3409090909091  C 3.42857142857143 10.420928030303  3.40029761904762 10.4901751893939  3.34375 10.5486505681818  C 3.28720238095238 10.6071259469697  3.2202380952381 10.6363636363636  3.14285714285714 10.6363636363636  L 2.57142857142857 10.6363636363636  C 2.49404761904762 10.6363636363636  2.42708333333333 10.6071259469697  2.37053571428571 10.5486505681818  C 2.3139880952381 10.4901751893939  2.28571428571429 10.420928030303  2.28571428571429 10.3409090909091  L 2.28571428571429 9.75  C 2.28571428571429 9.66998106060606  2.3139880952381 9.60073390151515  2.37053571428571 9.54225852272727  C 2.42708333333333 9.48378314393939  2.49404761904762 9.45454545454546  2.57142857142857 9.45454545454546  L 3.14285714285714 9.45454545454546  C 3.2202380952381 9.45454545454546  3.28720238095238 9.48378314393939  3.34375 9.54225852272727  Z M 3.34375 7.17862215909091  C 3.40029761904762 7.23709753787879  3.42857142857143 7.3063446969697  3.42857142857143 7.38636363636364  L 3.42857142857143 7.97727272727273  C 3.42857142857143 8.05729166666667  3.40029761904762 8.12653882575757  3.34375 8.18501420454546  C 3.28720238095238 8.24348958333333  3.2202380952381 8.27272727272727  3.14285714285714 8.27272727272727  L 2.57142857142857 8.27272727272727  C 2.49404761904762 8.27272727272727  2.42708333333333 8.24348958333333  2.37053571428571 8.18501420454546  C 2.3139880952381 8.12653882575757  2.28571428571429 8.05729166666667  2.28571428571429 7.97727272727273  L 2.28571428571429 7.38636363636364  C 2.28571428571429 7.3063446969697  2.3139880952381 7.23709753787879  2.37053571428571 7.17862215909091  C 2.42708333333333 7.12014678030303  2.49404761904762 7.09090909090909  2.57142857142857 7.09090909090909  L 3.14285714285714 7.09090909090909  C 3.2202380952381 7.09090909090909  3.28720238095238 7.12014678030303  3.34375 7.17862215909091  Z M 3.34375 4.81498579545455  C 3.40029761904762 4.87346117424242  3.42857142857143 4.94270833333333  3.42857142857143 5.02272727272727  L 3.42857142857143 5.61363636363636  C 3.42857142857143 5.6936553030303  3.40029761904762 5.76290246212121  3.34375 5.82137784090909  C 3.28720238095238 5.87985321969697  3.2202380952381 5.90909090909091  3.14285714285714 5.90909090909091  L 2.57142857142857 5.90909090909091  C 2.49404761904762 5.90909090909091  2.42708333333333 5.87985321969697  2.37053571428571 5.82137784090909  C 2.3139880952381 5.76290246212121  2.28571428571429 5.6936553030303  2.28571428571429 5.61363636363636  L 2.28571428571429 5.02272727272727  C 2.28571428571429 4.94270833333333  2.3139880952381 4.87346117424242  2.37053571428571 4.81498579545455  C 2.42708333333333 4.75651041666667  2.49404761904762 4.72727272727273  2.57142857142857 4.72727272727273  L 3.14285714285714 4.72727272727273  C 3.2202380952381 4.72727272727273  3.28720238095238 4.75651041666667  3.34375 4.81498579545455  Z M 13.6294642857143 9.54225852272727  C 13.6860119047619 9.60073390151515  13.7142857142857 9.66998106060606  13.7142857142857 9.75  L 13.7142857142857 10.3409090909091  C 13.7142857142857 10.420928030303  13.6860119047619 10.4901751893939  13.6294642857143 10.5486505681818  C 13.5729166666667 10.6071259469697  13.5059523809524 10.6363636363636  13.4285714285714 10.6363636363636  L 4.85714285714286 10.6363636363636  C 4.77976190476191 10.6363636363636  4.71279761904762 10.6071259469697  4.65625 10.5486505681818  C 4.59970238095238 10.4901751893939  4.57142857142857 10.420928030303  4.57142857142857 10.3409090909091  L 4.57142857142857 9.75  C 4.57142857142857 9.66998106060606  4.59970238095238 9.60073390151515  4.65625 9.54225852272727  C 4.71279761904762 9.48378314393939  4.77976190476191 9.45454545454546  4.85714285714286 9.45454545454546  L 13.4285714285714 9.45454545454546  C 13.5059523809524 9.45454545454546  13.5729166666667 9.48378314393939  13.6294642857143 9.54225852272727  Z M 13.6294642857143 7.17862215909091  C 13.6860119047619 7.23709753787879  13.7142857142857 7.3063446969697  13.7142857142857 7.38636363636364  L 13.7142857142857 7.97727272727273  C 13.7142857142857 8.05729166666667  13.6860119047619 8.12653882575757  13.6294642857143 8.18501420454546  C 13.5729166666667 8.24348958333333  13.5059523809524 8.27272727272727  13.4285714285714 8.27272727272727  L 4.85714285714286 8.27272727272727  C 4.77976190476191 8.27272727272727  4.71279761904762 8.24348958333333  4.65625 8.18501420454546  C 4.59970238095238 8.12653882575757  4.57142857142857 8.05729166666667  4.57142857142857 7.97727272727273  L 4.57142857142857 7.38636363636364  C 4.57142857142857 7.3063446969697  4.59970238095238 7.23709753787879  4.65625 7.17862215909091  C 4.71279761904762 7.12014678030303  4.77976190476191 7.09090909090909  4.85714285714286 7.09090909090909  L 13.4285714285714 7.09090909090909  C 13.5059523809524 7.09090909090909  13.5729166666667 7.12014678030303  13.6294642857143 7.17862215909091  Z M 13.6294642857143 4.81498579545455  C 13.6860119047619 4.87346117424242  13.7142857142857 4.94270833333333  13.7142857142857 5.02272727272727  L 13.7142857142857 5.61363636363636  C 13.7142857142857 5.6936553030303  13.6860119047619 5.76290246212121  13.6294642857143 5.82137784090909  C 13.5729166666667 5.87985321969697  13.5059523809524 5.90909090909091  13.4285714285714 5.90909090909091  L 4.85714285714286 5.90909090909091  C 4.77976190476191 5.90909090909091  4.71279761904762 5.87985321969697  4.65625 5.82137784090909  C 4.59970238095238 5.76290246212121  4.57142857142857 5.6936553030303  4.57142857142857 5.61363636363636  L 4.57142857142857 5.02272727272727  C 4.57142857142857 4.94270833333333  4.59970238095238 4.87346117424242  4.65625 4.81498579545455  C 4.71279761904762 4.75651041666667  4.77976190476191 4.72727272727273  4.85714285714286 4.72727272727273  L 13.4285714285714 4.72727272727273  C 13.5059523809524 4.72727272727273  13.5729166666667 4.75651041666667  13.6294642857143 4.81498579545455  Z M 14.7723214285714 11.73046875  C 14.828869047619 11.6719933712121  14.8571428571429 11.6027462121212  14.8571428571429 11.5227272727273  L 14.8571428571429 3.84090909090909  C 14.8571428571429 3.76089015151515  14.828869047619 3.69164299242424  14.7723214285714 3.63316761363636  C 14.7157738095238 3.57469223484848  14.6488095238095 3.54545454545455  14.5714285714286 3.54545454545455  L 1.42857142857143 3.54545454545455  C 1.35119047619048 3.54545454545455  1.28422619047619 3.57469223484848  1.22767857142857 3.63316761363636  C 1.17113095238095 3.69164299242424  1.14285714285714 3.76089015151515  1.14285714285714 3.84090909090909  L 1.14285714285714 11.5227272727273  C 1.14285714285714 11.6027462121212  1.17113095238095 11.6719933712121  1.22767857142857 11.73046875  C 1.28422619047619 11.7889441287879  1.35119047619048 11.8181818181818  1.42857142857143 11.8181818181818  L 14.5714285714286 11.8181818181818  C 14.6488095238095 11.8181818181818  14.7157738095238 11.7889441287879  14.7723214285714 11.73046875  Z M 15.5803571428571 0.433948863636363  C 15.860119047619 0.723248106060605  16 1.07102272727273  16 1.47727272727273  L 16 11.5227272727273  C 16 11.9289772727273  15.860119047619 12.2767518939394  15.5803571428571 12.5660511363636  C 15.3005952380952 12.8553503787879  14.9642857142857 13  14.5714285714286 13  L 1.42857142857143 13  C 1.03571428571429 13  0.699404761904762 12.8553503787879  0.419642857142857 12.5660511363636  C 0.139880952380952 12.2767518939394  0 11.9289772727273  0 11.5227272727273  L 0 1.47727272727273  C 0 1.07102272727273  0.139880952380952 0.723248106060605  0.419642857142857 0.433948863636363  C 0.699404761904762 0.14464962121212  1.03571428571429 0  1.42857142857143 0  L 14.5714285714286 0  C 14.9642857142857 0  15.3005952380952 0.14464962121212  15.5803571428571 0.433948863636363  Z " fill-rule="nonzero" fill="#ffffff" stroke="none" transform="matrix(1 0 0 1 15 368 )" />
  </g>
</svg>