<?xml version="1.0" encoding="utf-8"?>
<svg version="1.1" xmlns:xlink="http://www.w3.org/1999/xlink" width="16px" height="18px" xmlns="http://www.w3.org/2000/svg">
  <g transform="matrix(1 0 0 1 -15 -220 )">
    <path d="M 15.9602272727273 13.751953125  C 15.9867424242424 14.146484375  16 14.55078125  16 14.96484375  C 16 15.90234375  15.7234848484848 16.642578125  15.1704545454545 17.185546875  C 14.6174242424242 17.728515625  13.8825757575758 18  12.9659090909091 18  L 3.03409090909091 18  C 2.11742424242424 18  1.38257575757576 17.728515625  0.829545454545455 17.185546875  C 0.276515151515151 16.642578125  0 15.90234375  0 14.96484375  C 0 14.55078125  0.0132575757575758 14.146484375  0.0397727272727273 13.751953125  C 0.0662878787878788 13.357421875  0.119318181818182 12.931640625  0.198863636363636 12.474609375  C 0.278409090909091 12.017578125  0.378787878787879 11.59375  0.5 11.203125  C 0.621212121212121 10.8125  0.784090909090909 10.431640625  0.988636363636364 10.060546875  C 1.19318181818182 9.689453125  1.4280303030303 9.373046875  1.69318181818182 9.111328125  C 1.95833333333333 8.849609375  2.28219696969697 8.640625  2.66477272727273 8.484375  C 3.04734848484848 8.328125  3.46969696969697 8.25  3.93181818181818 8.25  C 4 8.25  4.15909090909091 8.333984375  4.40909090909091 8.501953125  C 4.65909090909091 8.669921875  4.94128787878788 8.857421875  5.25568181818182 9.064453125  C 5.57007575757576 9.271484375  5.97916666666667 9.458984375  6.48295454545455 9.626953125  C 6.98674242424242 9.794921875  7.49242424242424 9.87890625  8 9.87890625  C 8.50757575757576 9.87890625  9.01325757575758 9.794921875  9.51704545454546 9.626953125  C 10.0208333333333 9.458984375  10.4299242424242 9.271484375  10.7443181818182 9.064453125  C 11.0587121212121 8.857421875  11.3409090909091 8.669921875  11.5909090909091 8.501953125  C 11.8409090909091 8.333984375  12 8.25  12.0681818181818 8.25  C 12.530303030303 8.25  12.9526515151515 8.328125  13.3352272727273 8.484375  C 13.717803030303 8.640625  14.0416666666667 8.849609375  14.3068181818182 9.111328125  C 14.5719696969697 9.373046875  14.8068181818182 9.689453125  15.0113636363636 10.060546875  C 15.2159090909091 10.431640625  15.3787878787879 10.8125  15.5 11.203125  C 15.6212121212121 11.59375  15.7215909090909 12.017578125  15.8011363636364 12.474609375  C 15.8806818181818 12.931640625  15.9337121212121 13.357421875  15.9602272727273 13.751953125  Z M 11.0852272727273 1.318359375  C 11.9375 2.197265625  12.3636363636364 3.2578125  12.3636363636364 4.5  C 12.3636363636364 5.7421875  11.9375 6.802734375  11.0852272727273 7.681640625  C 10.2329545454545 8.560546875  9.20454545454546 9  8 9  C 6.79545454545455 9  5.76704545454545 8.560546875  4.91477272727273 7.681640625  C 4.0625 6.802734375  3.63636363636364 5.7421875  3.63636363636364 4.5  C 3.63636363636364 3.2578125  4.0625 2.197265625  4.91477272727273 1.318359375  C 5.76704545454545 0.439453125  6.79545454545455 0  8 0  C 9.20454545454546 0  10.2329545454545 0.439453125  11.0852272727273 1.318359375  Z " fill-rule="nonzero" fill="#ffffff" stroke="none" transform="matrix(1 0 0 1 15 220 )" />
  </g>
</svg>