<?xml version="1.0" encoding="utf-8"?>
<svg version="1.1" xmlns:xlink="http://www.w3.org/1999/xlink" width="248px" height="175px" xmlns="http://www.w3.org/2000/svg">
  <g transform="matrix(1 0 0 1 -288 -243 )">
    <path d="M 288 243  L 536 243  L 536 418  L 288 418  L 288 243  " fill-rule="nonzero" fill="#cccccc" stroke="none" />
    <path d="M 300 255  L 524 255  L 524 406  L 300 406  L 300 255  " fill-rule="nonzero" fill="#ffffff" stroke="none" />
    <path d="M 430.085 295.5  C 422.735 295.5  416.96 289.725  416.96 282.375  C 416.96 275.025  422.735 269.25  430.085 269.25  C 437.435 269.25  443.21 275.025  443.21 282.375  C 443.21 289.725  437.435 295.5  430.085 295.5  " fill-rule="nonzero" fill="#cccccc" stroke="none" />
    <path d="M 305 402  L 305 323.9  L 358.75 288.4  L 434 341.879032258065  L 477 309.7  L 520 341.879032258065  L 520 402  L 305 402  " fill-rule="nonzero" fill="#169bd5" stroke="none" />
  </g>
</svg>