<?xml version="1.0" encoding="utf-8"?>
<svg version="1.1" xmlns:xlink="http://www.w3.org/1999/xlink" width="12px" height="12px" viewBox="682 276  12 12" xmlns="http://www.w3.org/2000/svg">
  <path d="M 688 276  C 691.36 276  694 278.64  694 282  C 694 285.36  691.36 288  688 288  C 684.64 288  682 285.36  682 282  C 682 278.64  684.64 276  688 276  Z " fill-rule="nonzero" fill="#ffffff" stroke="none" />
  <path d="M 688 276.5  C 691.08 276.5  693.5 278.92  693.5 282  C 693.5 285.08  691.08 287.5  688 287.5  C 684.92 287.5  682.5 285.08  682.5 282  C 682.5 278.92  684.92 276.5  688 276.5  Z " stroke-width="1" stroke="#797979" fill="none" />
  <path d="M 688 285  C 686.32 285  685 283.68  685 282  C 685 280.32  686.32 279  688 279  C 689.68 279  691 280.32  691 282  C 691 283.68  689.68 285  688 285  " fill-rule="nonzero" fill="#797979" stroke="none" />
</svg>