<?xml version="1.0" encoding="utf-8"?>
<svg version="1.1" xmlns:xlink="http://www.w3.org/1999/xlink" width="12px" height="12px" viewBox="764 276  12 12" xmlns="http://www.w3.org/2000/svg">
  <path d="M 770 276  C 773.36 276  776 278.64  776 282  C 776 285.36  773.36 288  770 288  C 766.64 288  764 285.36  764 282  C 764 278.64  766.64 276  770 276  Z " fill-rule="nonzero" fill="#f0f0f0" stroke="none" />
  <path d="M 770 276.5  C 773.08 276.5  775.5 278.92  775.5 282  C 775.5 285.08  773.08 287.5  770 287.5  C 766.92 287.5  764.5 285.08  764.5 282  C 764.5 278.92  766.92 276.5  770 276.5  Z " stroke-width="1" stroke="#797979" fill="none" />
  <path d="M 770 285  C 768.32 285  767 283.68  767 282  C 767 280.32  768.32 279  770 279  C 771.68 279  773 280.32  773 282  C 773 283.68  771.68 285  770 285  " fill-rule="nonzero" fill="#797979" stroke="none" />
</svg>