<?xml version="1.0" encoding="utf-8"?>
<svg version="1.1" xmlns:xlink="http://www.w3.org/1999/xlink" width="292px" height="104px" xmlns="http://www.w3.org/2000/svg">
  <g transform="matrix(1 0 0 1 -517 -242 )">
    <path d="M 517 242  L 809 242  L 809 346  L 517 346  L 517 242  " fill-rule="nonzero" fill="#cccccc" stroke="none" />
    <path d="M 524 249  L 802 249  L 802 339  L 524 339  L 524 249  " fill-rule="nonzero" fill="#ffffff" stroke="none" />
    <path d="M 676.64 273.2  C 672.272 273.2  668.84 269.768  668.84 265.4  C 668.84 261.032  672.272 257.6  676.64 257.6  C 681.008 257.6  684.44 261.032  684.44 265.4  C 684.44 269.768  681.008 273.2  676.64 273.2  " fill-rule="nonzero" fill="#cccccc" stroke="none" />
    <path d="M 527 337  L 527 290.25  L 595.25 269  L 690.8 318.835616438356  L 745.4 281.75  L 800 318.835616438356  L 800 337  L 527 337  " fill-rule="nonzero" fill="#169bd5" stroke="none" />
  </g>
</svg>