<?xml version="1.0" encoding="utf-8"?>
<svg version="1.1" xmlns:xlink="http://www.w3.org/1999/xlink" width="300px" height="170px" xmlns="http://www.w3.org/2000/svg">
  <g transform="matrix(1 0 0 1 -760 -369 )">
    <path d="M 760 369  L 1060 369  L 1060 539  L 760 539  L 760 369  " fill-rule="nonzero" fill="#cccccc" stroke="none" />
    <path d="M 772 381  L 1048 381  L 1048 527  L 772 527  L 772 381  " fill-rule="nonzero" fill="#ffffff" stroke="none" />
    <path d="M 928.75 420  C 921.61 420  916 414.39  916 407.25  C 916 400.11  921.61 394.5  928.75 394.5  C 935.89 394.5  941.5 400.11  941.5 407.25  C 941.5 414.39  935.89 420  928.75 420  " fill-rule="nonzero" fill="#cccccc" stroke="none" />
    <path d="M 777 523  L 777 447.65  L 843.75 413.4  L 937.2 476.42  L 990.6 433.95  L 1044 476.42  L 1044 523  L 777 523  " fill-rule="nonzero" fill="#169bd5" stroke="none" />
  </g>
</svg>