<?xml version="1.0" encoding="utf-8"?>
<svg version="1.1" xmlns:xlink="http://www.w3.org/1999/xlink" width="143px" height="82px" xmlns="http://www.w3.org/2000/svg">
  <g transform="matrix(1 0 0 1 -502 -219 )">
    <path d="M 502 219  L 645 219  L 645 301  L 502 301  L 502 219  " fill-rule="nonzero" fill="#cccccc" stroke="none" />
    <path d="M 508 225  L 639 225  L 639 295  L 508 295  L 508 225  " fill-rule="nonzero" fill="#ffffff" stroke="none" />
    <path d="M 582.51 243.6  C 579.066 243.6  576.36 240.894  576.36 237.45  C 576.36 234.006  579.066 231.3  582.51 231.3  C 585.954 231.3  588.66 234.006  588.66 237.45  C 588.66 240.894  585.954 243.6  582.51 243.6  " fill-rule="nonzero" fill="#cccccc" stroke="none" />
    <path d="M 510 293  L 510 256.7  L 541.75 240.2  L 586.2 270.292307692308  L 611.6 250.1  L 637 270.292307692308  L 637 293  L 510 293  " fill-rule="nonzero" fill="#169bd5" stroke="none" />
  </g>
</svg>