<?xml version="1.0" encoding="utf-8"?>
<svg version="1.1" xmlns:xlink="http://www.w3.org/1999/xlink" width="146px" height="82px" xmlns="http://www.w3.org/2000/svg">
  <g transform="matrix(1 0 0 1 -500 -472 )">
    <path d="M 500 472  L 646 472  L 646 554  L 500 554  L 500 472  " fill-rule="nonzero" fill="#cccccc" stroke="none" />
    <path d="M 506 478  L 640 478  L 640 548  L 506 548  L 506 478  " fill-rule="nonzero" fill="#ffffff" stroke="none" />
    <path d="M 582.07 496.6  C 578.626 496.6  575.92 493.894  575.92 490.45  C 575.92 487.006  578.626 484.3  582.07 484.3  C 585.514 484.3  588.22 487.006  588.22 490.45  C 588.22 493.894  585.514 496.6  582.07 496.6  " fill-rule="nonzero" fill="#cccccc" stroke="none" />
    <path d="M 508 546  L 508 509.7  L 540.5 493.2  L 586 523.758904109589  L 612 503.1  L 638 523.758904109589  L 638 546  L 508 546  " fill-rule="nonzero" fill="#169bd5" stroke="none" />
  </g>
</svg>